<?xml version="1.0" encoding="UTF-8" standalone="no"?>
<!DOCTYPE svg PUBLIC "-//W3C//DTD SVG 1.1//EN" "http://www.w3.org/Graphics/SVG/1.1/DTD/svg11.dtd">
<svg width="100%" height="100%" viewBox="0 0 300 737" version="1.1" xmlns="http://www.w3.org/2000/svg" xmlns:xlink="http://www.w3.org/1999/xlink" xml:space="preserve" xmlns:serif="http://www.serif.com/" style="fill-rule:evenodd;clip-rule:evenodd;stroke-linecap:round;stroke-linejoin:round;stroke-miterlimit:1.5;">
    <g transform="matrix(1,0,0,1,-2108.66,-4811.79)">
        <g transform="matrix(1.10706,0,0,1,1442.74,0)">
            <rect x="601.976" y="4812.29" width="270.054" height="735.983" style="fill:none;stroke:white;stroke-width:0.95px;"/>
        </g>
        <g transform="matrix(10.5608,0,0,10.5608,-8398.94,3066.11)">
            <path d="M1001.42,226.772L1001.05,226.408C1000.72,226.07 1000.72,225.52 1001.05,225.182L1007.7,218.541C1007.71,218.525 1007.73,218.508 1007.74,218.491L1008.55,217.684C1008.87,217.357 1009.45,217.357 1009.78,217.684L1010.58,218.487C1010.6,218.505 1010.61,218.523 1010.63,218.541L1017.27,225.182C1017.61,225.52 1017.61,226.07 1017.27,226.408L1016.91,226.772L1009.65,219.518C1009.52,219.388 1009.35,219.315 1009.16,219.315C1008.98,219.315 1008.8,219.388 1008.67,219.518L1001.42,226.772ZM1014.71,232.637C1014.71,233.061 1014.36,233.406 1013.94,233.406L1012.15,233.406C1012.21,233.309 1012.23,233.198 1012.23,233.081L1012.23,227.362C1012.23,226.979 1011.92,226.668 1011.54,226.668L1006.78,226.668C1006.4,226.668 1006.09,226.979 1006.09,227.362L1006.09,233.081C1006.09,233.198 1006.12,233.309 1006.17,233.406L1004.39,233.406C1003.96,233.406 1003.62,233.061 1003.62,232.637L1003.62,226.533L1009.16,220.989L1012.7,224.529L1014.71,226.534L1014.71,232.637ZM1010.85,232.387L1007.48,232.387L1007.48,228.055L1010.85,228.055L1010.85,232.387ZM1004.39,234.792L1013.94,234.792C1015.13,234.792 1016.09,233.825 1016.09,232.637L1016.09,227.92L1016.42,228.242C1016.69,228.513 1017.13,228.513 1017.4,228.243L1018.25,227.388C1019.13,226.509 1019.13,225.08 1018.25,224.202L1011.66,217.612C1011.65,217.593 1011.63,217.575 1011.61,217.558L1010.76,216.703C1010.33,216.278 1009.77,216.043 1009.16,216.043C1008.56,216.043 1007.99,216.278 1007.57,216.703L1006.71,217.558C1006.7,217.574 1006.68,217.59 1006.67,217.608L1000.07,224.202C999.195,225.08 999.195,226.509 1000.07,227.388L1000.93,228.243C1001.06,228.377 1001.24,228.446 1001.42,228.446C1001.6,228.446 1001.77,228.377 1001.91,228.243L1002.23,227.919L1002.23,232.637C1002.23,233.825 1003.2,234.792 1004.39,234.792Z" style="fill:rgb(27,182,0);fill-rule:nonzero;"/>
        </g>
        <g transform="matrix(10.5608,0,0,10.5608,-8398.94,2597.38)">
            <path d="M1001.42,226.772L1001.05,226.408C1000.72,226.07 1000.72,225.52 1001.05,225.182L1007.7,218.541C1007.71,218.525 1007.73,218.508 1007.74,218.491L1008.55,217.684C1008.87,217.357 1009.45,217.357 1009.78,217.684L1010.58,218.487C1010.6,218.505 1010.61,218.523 1010.63,218.541L1017.27,225.182C1017.61,225.52 1017.61,226.07 1017.27,226.408L1016.91,226.772L1009.65,219.518C1009.52,219.388 1009.35,219.315 1009.16,219.315C1008.98,219.315 1008.8,219.388 1008.67,219.518L1001.42,226.772ZM1014.71,232.637C1014.71,233.061 1014.36,233.406 1013.94,233.406L1012.15,233.406C1012.21,233.309 1012.23,233.198 1012.23,233.081L1012.23,227.362C1012.23,226.979 1011.92,226.668 1011.54,226.668L1006.78,226.668C1006.4,226.668 1006.09,226.979 1006.09,227.362L1006.09,233.081C1006.09,233.198 1006.12,233.309 1006.17,233.406L1004.39,233.406C1003.96,233.406 1003.62,233.061 1003.62,232.637L1003.62,226.533L1009.16,220.989L1012.7,224.529L1014.71,226.534L1014.71,232.637ZM1010.85,232.387L1007.48,232.387L1007.48,228.055L1010.85,228.055L1010.85,232.387ZM1004.39,234.792L1013.94,234.792C1015.13,234.792 1016.09,233.825 1016.09,232.637L1016.09,227.92L1016.42,228.242C1016.69,228.513 1017.13,228.513 1017.4,228.243L1018.25,227.388C1019.13,226.509 1019.13,225.08 1018.25,224.202L1011.66,217.612C1011.65,217.593 1011.63,217.575 1011.61,217.558L1010.76,216.703C1010.33,216.278 1009.77,216.043 1009.16,216.043C1008.56,216.043 1007.99,216.278 1007.57,216.703L1006.71,217.558C1006.7,217.574 1006.68,217.59 1006.67,217.608L1000.07,224.202C999.195,225.08 999.195,226.509 1000.07,227.388L1000.93,228.243C1001.06,228.377 1001.24,228.446 1001.42,228.446C1001.6,228.446 1001.77,228.377 1001.91,228.243L1002.23,227.919L1002.23,232.637C1002.23,233.825 1003.2,234.792 1004.39,234.792Z" style="fill:rgb(180,180,180);fill-rule:nonzero;"/>
        </g>
        <g transform="matrix(1,0,0,1,1539.09,919.748)">
            <path d="M735.878,4285.91L719.556,4253.27L703.235,4285.91L576.569,4285.91L576.569,4298.65L862.544,4298.65L862.544,4285.91L735.878,4285.91Z" style="fill:rgb(27,182,0);"/>
        </g>
    </g>
</svg>
