<?xml version="1.0" encoding="UTF-8" standalone="no"?>
<!DOCTYPE svg PUBLIC "-//W3C//DTD SVG 1.1//EN" "http://www.w3.org/Graphics/SVG/1.1/DTD/svg11.dtd">
<svg width="100%" height="100%" viewBox="0 0 300 737" version="1.1" xmlns="http://www.w3.org/2000/svg" xmlns:xlink="http://www.w3.org/1999/xlink" xml:space="preserve" xmlns:serif="http://www.serif.com/" style="fill-rule:evenodd;clip-rule:evenodd;stroke-linecap:round;stroke-linejoin:round;stroke-miterlimit:1.5;">
    <g transform="matrix(1,0,0,1,-1610.73,-4811.79)">
        <g transform="matrix(1.10706,0,0,1,944.806,0)">
            <rect x="601.976" y="4812.29" width="270.054" height="735.983" style="fill:none;stroke:white;stroke-width:0.95px;"/>
        </g>
        <g transform="matrix(5.76452,0,0,5.76452,-716.904,4831.27)">
            <path d="M421.971,107.089C422.568,107.053 422.999,107.004 423.281,106.941C423.878,106.809 424.374,106.537 424.755,106.134C425.022,105.853 425.225,105.479 425.359,105.021C425.377,104.957 425.393,104.897 425.407,104.841L426.563,104.841L426.563,116.812L425.125,116.812L425.125,108.371C425.125,108.116 424.918,107.909 424.663,107.909L421.971,107.909L421.971,107.089ZM421.509,108.833L424.201,108.833L424.201,117.273C424.201,117.529 424.408,117.736 424.663,117.736L427.026,117.736C427.281,117.736 427.488,117.529 427.488,117.273L427.488,104.379C427.488,104.124 427.281,103.917 427.026,103.917L425.013,103.917C424.757,103.917 424.55,104.124 424.55,104.379C424.55,104.404 424.544,104.506 424.471,104.764C424.379,105.077 424.25,105.324 424.084,105.499C423.828,105.77 423.5,105.946 423.081,106.039C422.79,106.104 422.254,106.154 421.488,106.188C421.241,106.199 421.047,106.402 421.047,106.649L421.047,108.371C421.047,108.626 421.254,108.833 421.509,108.833Z" style="fill:rgb(27,182,0);fill-rule:nonzero;"/>
            <path d="M431.363,114.067C431.493,114.531 431.697,114.909 431.969,115.196C432.343,115.59 432.873,115.789 433.544,115.789C434.32,115.789 434.925,115.504 435.344,114.941C435.73,114.421 435.926,113.769 435.926,113.002C435.926,112.255 435.745,111.608 435.387,111.08C434.99,110.495 434.378,110.199 433.57,110.199C433.216,110.199 432.898,110.246 432.617,110.341C432.206,110.489 431.874,110.741 431.628,111.092L429.85,111.018L430.273,104.817L436.285,104.817L436.285,106.038L432.111,106.038C431.871,106.038 431.67,106.223 431.651,106.463L431.42,109.275C431.406,109.451 431.493,109.62 431.645,109.71C431.797,109.801 431.987,109.796 432.134,109.7C432.578,109.408 432.827,109.289 432.954,109.24C433.266,109.125 433.662,109.066 434.131,109.066C435.084,109.066 435.892,109.378 436.602,110.02C437.298,110.649 437.636,111.558 437.636,112.798C437.636,113.887 437.296,114.833 436.598,115.69C435.921,116.52 434.919,116.922 433.535,116.922C432.414,116.922 431.525,116.635 430.819,116.045C430.236,115.558 429.878,114.908 429.732,114.067L431.363,114.067ZM430.226,116.754C431.094,117.479 432.207,117.847 433.535,117.847C435.19,117.847 436.462,117.318 437.314,116.274C438.142,115.259 438.561,114.089 438.561,112.798C438.561,111.303 438.11,110.137 437.222,109.334C436.347,108.542 435.308,108.141 434.131,108.141C433.543,108.141 433.053,108.218 432.629,108.375C432.563,108.4 432.491,108.431 432.414,108.468L432.537,106.963L436.748,106.963C437.002,106.963 437.209,106.756 437.209,106.5L437.209,104.355C437.209,104.1 437.002,103.893 436.748,103.893L429.841,103.893C429.598,103.893 429.396,104.081 429.38,104.324L428.895,111.428C428.887,111.552 428.929,111.675 429.012,111.768C429.095,111.86 429.212,111.916 429.337,111.921L431.861,112.027C432.04,112.038 432.208,111.938 432.291,111.778C432.436,111.499 432.645,111.313 432.923,111.214C433.099,111.153 433.317,111.123 433.57,111.123C434.067,111.123 434.401,111.274 434.622,111.599C434.874,111.971 435.002,112.443 435.002,113.002C435.002,113.566 434.868,114.033 434.603,114.39C434.361,114.714 434.025,114.865 433.544,114.865C433.13,114.865 432.835,114.765 432.64,114.56C432.421,114.33 432.269,113.981 432.185,113.522C432.145,113.303 431.954,113.143 431.73,113.143L429.211,113.143C429.083,113.143 428.96,113.197 428.873,113.291C428.785,113.385 428.741,113.511 428.75,113.639C428.847,114.968 429.344,116.016 430.226,116.754Z" style="fill:rgb(27,182,0);fill-rule:nonzero;"/>
            <path d="M446.278,120.005C446.278,121.409 445.136,122.55 443.732,122.55L415.875,122.55C414.472,122.55 413.33,121.409 413.33,120.005L413.33,94.957C413.33,93.553 414.472,92.411 415.875,92.411L416.317,92.411L416.317,93.769C416.317,95.52 417.742,96.946 419.493,96.946C421.245,96.946 422.669,95.52 422.669,93.769L422.669,92.411L436.938,92.411L436.938,93.769C436.938,95.52 438.363,96.946 440.114,96.946C441.867,96.946 443.292,95.52 443.292,93.769L443.292,92.411L443.732,92.411C445.136,92.411 446.278,93.553 446.278,94.957L446.278,120.005ZM418.519,87.29C418.519,86.736 418.969,86.286 419.522,86.286C420.076,86.286 420.526,86.736 420.526,87.29L420.526,94.157C420.526,94.71 420.076,95.161 419.522,95.161C418.969,95.161 418.519,94.71 418.519,94.157L418.519,87.29ZM439.036,87.29C439.036,86.736 439.486,86.286 440.04,86.286C440.593,86.286 441.043,86.736 441.043,87.29L441.043,94.157C441.043,94.71 440.593,95.161 440.04,95.161C439.486,95.161 439.036,94.71 439.036,94.157L439.036,87.29ZM443.732,91.024L442.598,91.024C442.5,91.024 442.406,91.045 442.321,91.082L442.321,87.29C442.321,86.032 441.298,85.008 440.04,85.008C438.782,85.008 437.758,86.032 437.758,87.29L437.758,91.037C437.717,91.03 437.675,91.024 437.631,91.024L421.976,91.024C421.917,91.024 421.859,91.034 421.804,91.048L421.804,87.29C421.804,86.032 420.781,85.008 419.522,85.008C418.264,85.008 417.241,86.032 417.241,87.29L417.241,91.067C417.168,91.04 417.091,91.024 417.01,91.024L415.875,91.024C413.707,91.024 411.944,92.789 411.944,94.957L411.944,120.005C411.944,122.173 413.707,123.937 415.875,123.937L443.732,123.937C445.9,123.937 447.664,122.173 447.664,120.005L447.664,94.957C447.664,92.789 445.9,91.024 443.732,91.024Z" style="fill:rgb(27,182,0);fill-rule:nonzero;"/>
            <path d="M443.567,118.719C443.567,119.269 443.119,119.717 442.568,119.717L417.158,119.717C416.607,119.717 416.159,119.269 416.159,118.719L416.159,102.395L443.567,102.395L443.567,118.719ZM444.261,101.008L415.466,101.008C415.083,101.008 414.772,101.318 414.772,101.701L414.772,118.719C414.772,120.033 415.843,121.104 417.158,121.104L442.568,121.104C443.883,121.104 444.954,120.033 444.954,118.719L444.954,101.701C444.954,101.318 444.644,101.008 444.261,101.008Z" style="fill:rgb(27,182,0);fill-rule:nonzero;"/>
        </g>
        <g transform="matrix(5.76452,0,0,5.76452,-716.904,4362.54)">
            <path d="M421.971,107.089C422.568,107.053 422.999,107.004 423.281,106.941C423.878,106.809 424.374,106.537 424.755,106.134C425.022,105.853 425.225,105.479 425.359,105.021C425.377,104.957 425.393,104.897 425.407,104.841L426.563,104.841L426.563,116.812L425.125,116.812L425.125,108.371C425.125,108.116 424.918,107.909 424.663,107.909L421.971,107.909L421.971,107.089ZM421.509,108.833L424.201,108.833L424.201,117.273C424.201,117.529 424.408,117.736 424.663,117.736L427.026,117.736C427.281,117.736 427.488,117.529 427.488,117.273L427.488,104.379C427.488,104.124 427.281,103.917 427.026,103.917L425.013,103.917C424.757,103.917 424.55,104.124 424.55,104.379C424.55,104.404 424.544,104.506 424.471,104.764C424.379,105.077 424.25,105.324 424.084,105.499C423.828,105.77 423.5,105.946 423.081,106.039C422.79,106.104 422.254,106.154 421.488,106.188C421.241,106.199 421.047,106.402 421.047,106.649L421.047,108.371C421.047,108.626 421.254,108.833 421.509,108.833Z" style="fill:rgb(180,180,180);fill-rule:nonzero;"/>
            <path d="M431.363,114.067C431.493,114.531 431.697,114.909 431.969,115.196C432.343,115.59 432.873,115.789 433.544,115.789C434.32,115.789 434.925,115.504 435.344,114.941C435.73,114.421 435.926,113.769 435.926,113.002C435.926,112.255 435.745,111.608 435.387,111.08C434.99,110.495 434.378,110.199 433.57,110.199C433.216,110.199 432.898,110.246 432.617,110.341C432.206,110.489 431.874,110.741 431.628,111.092L429.85,111.018L430.273,104.817L436.285,104.817L436.285,106.038L432.111,106.038C431.871,106.038 431.67,106.223 431.651,106.463L431.42,109.275C431.406,109.451 431.493,109.62 431.645,109.71C431.797,109.801 431.987,109.796 432.134,109.7C432.578,109.408 432.827,109.289 432.954,109.24C433.266,109.125 433.662,109.066 434.131,109.066C435.084,109.066 435.892,109.378 436.602,110.02C437.298,110.649 437.636,111.558 437.636,112.798C437.636,113.887 437.296,114.833 436.598,115.69C435.921,116.52 434.919,116.922 433.535,116.922C432.414,116.922 431.525,116.635 430.819,116.045C430.236,115.558 429.878,114.908 429.732,114.067L431.363,114.067ZM430.226,116.754C431.094,117.479 432.207,117.847 433.535,117.847C435.19,117.847 436.462,117.318 437.314,116.274C438.142,115.259 438.561,114.089 438.561,112.798C438.561,111.303 438.11,110.137 437.222,109.334C436.347,108.542 435.308,108.141 434.131,108.141C433.543,108.141 433.053,108.218 432.629,108.375C432.563,108.4 432.491,108.431 432.414,108.468L432.537,106.963L436.748,106.963C437.002,106.963 437.209,106.756 437.209,106.5L437.209,104.355C437.209,104.1 437.002,103.893 436.748,103.893L429.841,103.893C429.598,103.893 429.396,104.081 429.38,104.324L428.895,111.428C428.887,111.552 428.929,111.675 429.012,111.768C429.095,111.86 429.212,111.916 429.337,111.921L431.861,112.027C432.04,112.038 432.208,111.938 432.291,111.778C432.436,111.499 432.645,111.313 432.923,111.214C433.099,111.153 433.317,111.123 433.57,111.123C434.067,111.123 434.401,111.274 434.622,111.599C434.874,111.971 435.002,112.443 435.002,113.002C435.002,113.566 434.868,114.033 434.603,114.39C434.361,114.714 434.025,114.865 433.544,114.865C433.13,114.865 432.835,114.765 432.64,114.56C432.421,114.33 432.269,113.981 432.185,113.522C432.145,113.303 431.954,113.143 431.73,113.143L429.211,113.143C429.083,113.143 428.96,113.197 428.873,113.291C428.785,113.385 428.741,113.511 428.75,113.639C428.847,114.968 429.344,116.016 430.226,116.754Z" style="fill:rgb(180,180,180);fill-rule:nonzero;"/>
            <path d="M446.278,120.005C446.278,121.409 445.136,122.55 443.732,122.55L415.875,122.55C414.472,122.55 413.33,121.409 413.33,120.005L413.33,94.957C413.33,93.553 414.472,92.411 415.875,92.411L416.317,92.411L416.317,93.769C416.317,95.52 417.742,96.946 419.493,96.946C421.245,96.946 422.669,95.52 422.669,93.769L422.669,92.411L436.938,92.411L436.938,93.769C436.938,95.52 438.363,96.946 440.114,96.946C441.867,96.946 443.292,95.52 443.292,93.769L443.292,92.411L443.732,92.411C445.136,92.411 446.278,93.553 446.278,94.957L446.278,120.005ZM418.519,87.29C418.519,86.736 418.969,86.286 419.522,86.286C420.076,86.286 420.526,86.736 420.526,87.29L420.526,94.157C420.526,94.71 420.076,95.161 419.522,95.161C418.969,95.161 418.519,94.71 418.519,94.157L418.519,87.29ZM439.036,87.29C439.036,86.736 439.486,86.286 440.04,86.286C440.593,86.286 441.043,86.736 441.043,87.29L441.043,94.157C441.043,94.71 440.593,95.161 440.04,95.161C439.486,95.161 439.036,94.71 439.036,94.157L439.036,87.29ZM443.732,91.024L442.598,91.024C442.5,91.024 442.406,91.045 442.321,91.082L442.321,87.29C442.321,86.032 441.298,85.008 440.04,85.008C438.782,85.008 437.758,86.032 437.758,87.29L437.758,91.037C437.717,91.03 437.675,91.024 437.631,91.024L421.976,91.024C421.917,91.024 421.859,91.034 421.804,91.048L421.804,87.29C421.804,86.032 420.781,85.008 419.522,85.008C418.264,85.008 417.241,86.032 417.241,87.29L417.241,91.067C417.168,91.04 417.091,91.024 417.01,91.024L415.875,91.024C413.707,91.024 411.944,92.789 411.944,94.957L411.944,120.005C411.944,122.173 413.707,123.937 415.875,123.937L443.732,123.937C445.9,123.937 447.664,122.173 447.664,120.005L447.664,94.957C447.664,92.789 445.9,91.024 443.732,91.024Z" style="fill:rgb(180,180,180);fill-rule:nonzero;"/>
            <path d="M443.567,118.719C443.567,119.269 443.119,119.717 442.568,119.717L417.158,119.717C416.607,119.717 416.159,119.269 416.159,118.719L416.159,102.395L443.567,102.395L443.567,118.719ZM444.261,101.008L415.466,101.008C415.083,101.008 414.772,101.318 414.772,101.701L414.772,118.719C414.772,120.033 415.843,121.104 417.158,121.104L442.568,121.104C443.883,121.104 444.954,120.033 444.954,118.719L444.954,101.701C444.954,101.318 444.644,101.008 444.261,101.008Z" style="fill:rgb(180,180,180);fill-rule:nonzero;"/>
        </g>
        <g transform="matrix(1,0,0,1,1041.15,919.748)">
            <path d="M735.878,4285.91L719.556,4253.27L703.235,4285.91L576.569,4285.91L576.569,4298.65L862.544,4298.65L862.544,4285.91L735.878,4285.91Z" style="fill:rgb(27,182,0);"/>
        </g>
    </g>
</svg>
