<?xml version="1.0" encoding="UTF-8" standalone="no"?>
<!DOCTYPE svg PUBLIC "-//W3C//DTD SVG 1.1//EN" "http://www.w3.org/Graphics/SVG/1.1/DTD/svg11.dtd">
<svg width="100%" height="100%" viewBox="0 0 300 737" version="1.1" xmlns="http://www.w3.org/2000/svg" xmlns:xlink="http://www.w3.org/1999/xlink" xml:space="preserve" xmlns:serif="http://www.serif.com/" style="fill-rule:evenodd;clip-rule:evenodd;stroke-linecap:round;stroke-linejoin:round;stroke-miterlimit:1.5;">
    <g transform="matrix(1,0,0,1,-1085.07,-4811.79)">
        <g transform="matrix(1.10706,0,0,1,419.146,0)">
            <rect x="601.976" y="4812.29" width="270.054" height="735.983" style="fill:none;stroke:white;stroke-width:0.95px;"/>
        </g>
        <g transform="matrix(6.11428,0,0,6.11428,-606.98,-758.543)">
            <path d="M297.571,1022.33L300.715,1025.47C300.862,1025.62 301.061,1025.7 301.268,1025.7C301.475,1025.7 301.672,1025.62 301.819,1025.47L304.963,1022.33L312.323,1029.69L290.211,1029.69L297.571,1022.33ZM314.567,1010.52L311.16,1013.93L311.16,1009.62C311.16,1009.36 310.95,1009.15 310.691,1009.15L292.105,1009.15C291.846,1009.15 291.637,1009.36 291.637,1009.62L291.637,1014.19L287.967,1010.52L301.268,997.217L314.567,1010.52ZM292.573,1010.09L310.223,1010.09L310.223,1015.3L301.268,1024.26L292.573,1015.57L292.573,1010.09ZM286.734,1028.06L286.734,1012.37C286.734,1012.12 286.799,1011.88 286.903,1011.66L296.468,1021.23L288.037,1029.66C287.295,1029.5 286.734,1028.85 286.734,1028.06ZM315.8,1012.37L315.8,1028.06C315.8,1028.85 315.239,1029.5 314.498,1029.66L306.066,1021.23L315.631,1011.66C315.735,1011.88 315.8,1012.12 315.8,1012.37ZM300.715,995.562L286.311,1009.97C286.156,1010.12 286.081,1010.33 286.083,1010.53C285.676,1011.03 285.43,1011.67 285.43,1012.37L285.43,1028.06C285.43,1029.68 286.747,1030.99 288.365,1030.99L288.764,1030.99L288.835,1031.07L288.907,1030.99L313.627,1030.99L313.699,1031.07L313.771,1030.99L314.169,1030.99C315.788,1030.99 317.104,1029.68 317.104,1028.06L317.104,1012.37C317.104,1011.67 316.858,1011.03 316.451,1010.53C316.454,1010.33 316.378,1010.12 316.224,1009.97L301.819,995.562C301.527,995.269 301.008,995.269 300.715,995.562Z" style="fill:rgb(27,182,0);fill-rule:nonzero;"/>
        </g>
        <g transform="matrix(6.11428,0,0,6.11428,-606.98,-1227.27)">
            <path d="M297.571,1022.33L300.715,1025.47C300.862,1025.62 301.061,1025.7 301.268,1025.7C301.475,1025.7 301.672,1025.62 301.819,1025.47L304.963,1022.33L312.323,1029.69L290.211,1029.69L297.571,1022.33ZM314.567,1010.52L311.16,1013.93L311.16,1009.62C311.16,1009.36 310.95,1009.15 310.691,1009.15L292.105,1009.15C291.846,1009.15 291.637,1009.36 291.637,1009.62L291.637,1014.19L287.967,1010.52L301.268,997.217L314.567,1010.52ZM292.573,1010.09L310.223,1010.09L310.223,1015.3L301.268,1024.26L292.573,1015.57L292.573,1010.09ZM286.734,1028.06L286.734,1012.37C286.734,1012.12 286.799,1011.88 286.903,1011.66L296.468,1021.23L288.037,1029.66C287.295,1029.5 286.734,1028.85 286.734,1028.06ZM315.8,1012.37L315.8,1028.06C315.8,1028.85 315.239,1029.5 314.498,1029.66L306.066,1021.23L315.631,1011.66C315.735,1011.88 315.8,1012.12 315.8,1012.37ZM300.715,995.562L286.311,1009.97C286.156,1010.12 286.081,1010.33 286.083,1010.53C285.676,1011.03 285.43,1011.67 285.43,1012.37L285.43,1028.06C285.43,1029.68 286.747,1030.99 288.365,1030.99L288.764,1030.99L288.835,1031.07L288.907,1030.99L313.627,1030.99L313.699,1031.07L313.771,1030.99L314.169,1030.99C315.788,1030.99 317.104,1029.68 317.104,1028.06L317.104,1012.37C317.104,1011.67 316.858,1011.03 316.451,1010.53C316.454,1010.33 316.378,1010.12 316.224,1009.97L301.819,995.562C301.527,995.269 301.008,995.269 300.715,995.562Z" style="fill:rgb(180,180,180);fill-rule:nonzero;"/>
        </g>
        <g transform="matrix(1,0,0,1,515.494,919.748)">
            <path d="M735.878,4285.91L719.556,4253.27L703.235,4285.91L576.569,4285.91L576.569,4298.65L862.544,4298.65L862.544,4285.91L735.878,4285.91Z" style="fill:rgb(27,182,0);"/>
        </g>
    </g>
</svg>
