<?xml version="1.0" encoding="UTF-8" standalone="no"?>
<!DOCTYPE svg PUBLIC "-//W3C//DTD SVG 1.1//EN" "http://www.w3.org/Graphics/SVG/1.1/DTD/svg11.dtd">
<svg width="100%" height="100%" viewBox="0 0 300 737" version="1.1" xmlns="http://www.w3.org/2000/svg" xmlns:xlink="http://www.w3.org/1999/xlink" xml:space="preserve" xmlns:serif="http://www.serif.com/" style="fill-rule:evenodd;clip-rule:evenodd;stroke-linecap:round;stroke-linejoin:round;stroke-miterlimit:1.5;">
    <g transform="matrix(1,0,0,1,-3146.7,-4811.79)">
        <g transform="matrix(1.10706,0,0,1,2480.78,0)">
            <rect x="601.976" y="4812.29" width="270.054" height="735.983" style="fill:none;stroke:white;stroke-width:0.95px;"/>
        </g>
        <g transform="matrix(6.55563,0,0,6.55563,900.371,69.5302)">
            <path d="M370.634,815.556L360.437,815.556L360.437,811.08C360.437,808.269 362.724,805.981 365.536,805.981C368.347,805.981 370.634,808.269 370.634,811.08L370.634,815.556ZM365.536,803.172C369.896,803.172 373.444,806.72 373.444,811.08L373.444,815.556L372.195,815.556L372.195,811.08C372.195,807.408 369.208,804.421 365.536,804.421C361.863,804.421 358.875,807.408 358.875,811.08L358.875,815.556L357.627,815.556L357.627,811.08C357.627,806.72 361.175,803.172 365.536,803.172ZM353.997,819.734C353.997,818.291 355.171,817.116 356.615,817.116L374.457,817.116C375.9,817.116 377.075,818.291 377.075,819.734L377.075,831.161C377.075,832.604 375.9,833.779 374.457,833.779L356.615,833.779C355.171,833.779 353.997,832.604 353.997,831.161L353.997,819.734ZM356.615,835.34L374.457,835.34C376.761,835.34 378.635,833.465 378.635,831.161L378.635,819.734C378.635,817.616 377.051,815.866 375.005,815.596L375.005,811.08C375.005,805.859 370.757,801.611 365.536,801.611C360.314,801.611 356.066,805.859 356.066,811.08L356.066,815.596C354.021,815.866 352.436,817.616 352.436,819.734L352.436,831.161C352.436,833.465 354.311,835.34 356.615,835.34Z" style="fill:rgb(27,182,0);fill-rule:nonzero;"/>
            <path d="M364.602,822.461L366.469,822.461L366.469,828.434L364.602,828.434L364.602,822.461ZM363.978,829.683L367.094,829.683C367.438,829.683 367.718,829.404 367.718,829.059L367.718,821.837C367.718,821.492 367.438,821.212 367.094,821.212L363.978,821.212C363.633,821.212 363.353,821.492 363.353,821.837L363.353,829.059C363.353,829.404 363.633,829.683 363.978,829.683Z" style="fill:rgb(27,182,0);fill-rule:nonzero;"/>
        </g>
        <g transform="matrix(6.55563,0,0,6.55563,900.371,-399.198)">
            <path d="M370.634,815.556L360.437,815.556L360.437,811.08C360.437,808.269 362.724,805.981 365.536,805.981C368.347,805.981 370.634,808.269 370.634,811.08L370.634,815.556ZM365.536,803.172C369.896,803.172 373.444,806.72 373.444,811.08L373.444,815.556L372.195,815.556L372.195,811.08C372.195,807.408 369.208,804.421 365.536,804.421C361.863,804.421 358.875,807.408 358.875,811.08L358.875,815.556L357.627,815.556L357.627,811.08C357.627,806.72 361.175,803.172 365.536,803.172ZM353.997,819.734C353.997,818.291 355.171,817.116 356.615,817.116L374.457,817.116C375.9,817.116 377.075,818.291 377.075,819.734L377.075,831.161C377.075,832.604 375.9,833.779 374.457,833.779L356.615,833.779C355.171,833.779 353.997,832.604 353.997,831.161L353.997,819.734ZM356.615,835.34L374.457,835.34C376.761,835.34 378.635,833.465 378.635,831.161L378.635,819.734C378.635,817.616 377.051,815.866 375.005,815.596L375.005,811.08C375.005,805.859 370.757,801.611 365.536,801.611C360.314,801.611 356.066,805.859 356.066,811.08L356.066,815.596C354.021,815.866 352.436,817.616 352.436,819.734L352.436,831.161C352.436,833.465 354.311,835.34 356.615,835.34Z" style="fill:rgb(180,180,180);fill-rule:nonzero;"/>
            <path d="M364.602,822.461L366.469,822.461L366.469,828.434L364.602,828.434L364.602,822.461ZM363.978,829.683L367.094,829.683C367.438,829.683 367.718,829.404 367.718,829.059L367.718,821.837C367.718,821.492 367.438,821.212 367.094,821.212L363.978,821.212C363.633,821.212 363.353,821.492 363.353,821.837L363.353,829.059C363.353,829.404 363.633,829.683 363.978,829.683Z" style="fill:rgb(180,180,180);fill-rule:nonzero;"/>
        </g>
        <g transform="matrix(1,0,0,1,2577.13,919.748)">
            <path d="M735.878,4285.91L719.556,4253.27L703.235,4285.91L576.569,4285.91L576.569,4298.65L862.544,4298.65L862.544,4285.91L735.878,4285.91Z" style="fill:rgb(27,182,0);"/>
        </g>
    </g>
</svg>
