<?xml version="1.0" encoding="UTF-8" standalone="no"?>
<!DOCTYPE svg PUBLIC "-//W3C//DTD SVG 1.1//EN" "http://www.w3.org/Graphics/SVG/1.1/DTD/svg11.dtd">
<svg width="100%" height="100%" viewBox="0 0 300 737" version="1.1" xmlns="http://www.w3.org/2000/svg" xmlns:xlink="http://www.w3.org/1999/xlink" xml:space="preserve" xmlns:serif="http://www.serif.com/" style="fill-rule:evenodd;clip-rule:evenodd;stroke-linecap:round;stroke-linejoin:round;stroke-miterlimit:1.5;">
    <g transform="matrix(1,0,0,1,-2642.13,-4811.79)">
        <g transform="matrix(1.10706,0,0,1,1976.21,0)">
            <rect x="601.976" y="4812.29" width="270.054" height="735.983" style="fill:none;stroke:white;stroke-width:0.95px;"/>
        </g>
        <g transform="matrix(6.99265,0,0,6.99265,-2010.98,623.623)">
            <path d="M673.979,680.537C673.998,680.521 674.014,680.505 674.03,680.488L674.072,680.442C674.089,680.423 674.104,680.403 674.119,680.382C674.208,680.254 674.302,680.134 674.401,680.025L675.297,679.035C675.382,678.94 675.481,678.845 675.609,678.735C676.098,678.314 676.692,678.033 677.329,677.923C677.55,677.884 677.748,677.866 677.932,677.866C678.813,677.866 679.659,678.192 680.312,678.782L681.824,680.15C682.46,680.725 682.853,681.479 682.961,682.332C682.973,682.422 682.984,682.514 682.989,682.606C683.037,683.554 682.712,684.463 682.076,685.167L681.181,686.156C680.746,686.637 680.19,686.989 679.572,687.175L679.298,687.258C679.139,687.307 679.01,687.422 678.945,687.575C678.879,687.728 678.884,687.901 678.959,688.049L679.085,688.302C681.063,692.272 684.422,695.355 688.545,696.983L688.784,697.078C688.928,697.132 689.087,697.127 689.227,697.062C689.366,696.996 689.472,696.876 689.521,696.731L689.601,696.492C689.757,696.028 690.003,695.608 690.333,695.244L691.229,694.253C691.901,693.51 692.861,693.084 693.864,693.084C694.102,693.084 694.351,693.111 694.603,693.165C695.217,693.296 695.785,693.586 696.246,694.002L697.756,695.368C698.716,696.236 699.126,697.562 698.826,698.829C698.744,699.179 698.598,699.526 698.391,699.862C698.261,700.073 698.14,700.239 698.007,700.385L697.112,701.375C696.864,701.65 696.572,701.886 696.23,702.083C696.098,702.165 695.941,702.246 695.75,702.331C694.95,702.688 694.012,702.83 693.037,702.741C683.749,701.908 675.859,695.294 673.405,686.283C673.248,685.708 673.122,685.169 673.02,684.634C672.62,682.572 673.375,681.054 673.979,680.537ZM672.318,686.579C674.895,696.042 683.181,702.988 692.936,703.863C693.159,703.883 693.38,703.894 693.6,703.894C694.529,703.894 695.42,703.712 696.209,703.359C696.446,703.254 696.646,703.15 696.807,703.051C697.238,702.803 697.622,702.493 697.948,702.13L698.843,701.141C699.021,700.945 699.187,700.719 699.351,700.451C699.621,700.014 699.813,699.555 699.922,699.088C700.317,697.422 699.777,695.676 698.512,694.533L697.001,693.167C696.394,692.617 695.646,692.235 694.838,692.063C694.508,691.993 694.181,691.957 693.864,691.957C692.543,691.957 691.279,692.519 690.393,693.497L689.498,694.488C689.141,694.882 688.858,695.326 688.655,695.812C685.043,694.304 682.083,691.593 680.262,688.127C680.93,687.864 681.53,687.449 682.016,686.912L682.911,685.923C683.75,684.996 684.177,683.798 684.114,682.55C684.108,682.429 684.094,682.309 684.079,682.19C683.938,681.083 683.406,680.062 682.579,679.313L681.069,677.948C680.208,677.168 679.093,676.739 677.932,676.739C677.682,676.739 677.421,676.763 677.136,676.813C676.299,676.958 675.517,677.328 674.874,677.881C674.71,678.022 674.579,678.149 674.461,678.279L673.567,679.268C673.444,679.403 673.326,679.551 673.215,679.708C672.233,680.574 671.456,682.487 671.913,684.848C672.021,685.41 672.153,685.977 672.318,686.579Z" style="fill:rgb(27,182,0);fill-rule:nonzero;"/>
            <path d="M700.06,687.817C700.06,680.937 694.462,675.34 687.582,675.34C687.208,675.34 686.905,675.036 686.905,674.662C686.905,674.289 687.208,673.985 687.582,673.985C695.209,673.985 701.414,680.19 701.414,687.817C701.414,688.19 701.11,688.494 700.737,688.494C700.364,688.494 700.06,688.19 700.06,687.817ZM701.978,687.817C701.978,679.879 695.52,673.421 687.582,673.421C686.898,673.421 686.341,673.978 686.341,674.662C686.341,675.346 686.898,675.903 687.582,675.903C694.151,675.903 699.496,681.248 699.496,687.817C699.496,688.501 700.053,689.058 700.737,689.058C701.421,689.058 701.978,688.501 701.978,687.817Z" style="fill:rgb(27,182,0);fill-rule:nonzero;"/>
            <path d="M686.75,679.356C686.75,678.983 687.054,678.679 687.428,678.679C692.551,678.679 696.72,682.848 696.72,687.972C696.72,688.345 696.416,688.648 696.042,688.648C695.669,688.648 695.365,688.345 695.365,687.972C695.365,683.595 691.804,680.034 687.428,680.034C687.054,680.034 686.75,679.73 686.75,679.356ZM694.802,687.972C694.802,688.655 695.358,689.212 696.042,689.212C696.726,689.212 697.283,688.655 697.283,687.972C697.283,682.537 692.862,678.116 687.428,678.116C686.744,678.116 686.187,678.672 686.187,679.356C686.187,680.041 686.744,680.598 687.428,680.598C691.494,680.598 694.802,683.905 694.802,687.972Z" style="fill:rgb(27,182,0);fill-rule:nonzero;"/>
        </g>
        <g transform="matrix(6.99265,0,0,6.99265,-2010.98,154.896)">
            <path d="M673.979,680.537C673.998,680.521 674.014,680.505 674.03,680.488L674.072,680.442C674.089,680.423 674.104,680.403 674.119,680.382C674.208,680.254 674.302,680.134 674.401,680.025L675.297,679.035C675.382,678.94 675.481,678.845 675.609,678.735C676.098,678.314 676.692,678.033 677.329,677.923C677.55,677.884 677.748,677.866 677.932,677.866C678.813,677.866 679.659,678.192 680.312,678.782L681.824,680.15C682.46,680.725 682.853,681.479 682.961,682.332C682.973,682.422 682.984,682.514 682.989,682.606C683.037,683.554 682.712,684.463 682.076,685.167L681.181,686.156C680.746,686.637 680.19,686.989 679.572,687.175L679.298,687.258C679.139,687.307 679.01,687.422 678.945,687.575C678.879,687.728 678.884,687.901 678.959,688.049L679.085,688.302C681.063,692.272 684.422,695.355 688.545,696.983L688.784,697.078C688.928,697.132 689.087,697.127 689.227,697.062C689.366,696.996 689.472,696.876 689.521,696.731L689.601,696.492C689.757,696.028 690.003,695.608 690.333,695.244L691.229,694.253C691.901,693.51 692.861,693.084 693.864,693.084C694.102,693.084 694.351,693.111 694.603,693.165C695.217,693.296 695.785,693.586 696.246,694.002L697.756,695.368C698.716,696.236 699.126,697.562 698.826,698.829C698.744,699.179 698.598,699.526 698.391,699.862C698.261,700.073 698.14,700.239 698.007,700.385L697.112,701.375C696.864,701.65 696.572,701.886 696.23,702.083C696.098,702.165 695.941,702.246 695.75,702.331C694.95,702.688 694.012,702.83 693.037,702.741C683.749,701.908 675.859,695.294 673.405,686.283C673.248,685.708 673.122,685.169 673.02,684.634C672.62,682.572 673.375,681.054 673.979,680.537ZM672.318,686.579C674.895,696.042 683.181,702.988 692.936,703.863C693.159,703.883 693.38,703.894 693.6,703.894C694.529,703.894 695.42,703.712 696.209,703.359C696.446,703.254 696.646,703.15 696.807,703.051C697.238,702.803 697.622,702.493 697.948,702.13L698.843,701.141C699.021,700.945 699.187,700.719 699.351,700.451C699.621,700.014 699.813,699.555 699.922,699.088C700.317,697.422 699.777,695.676 698.512,694.533L697.001,693.167C696.394,692.617 695.646,692.235 694.838,692.063C694.508,691.993 694.181,691.957 693.864,691.957C692.543,691.957 691.279,692.519 690.393,693.497L689.498,694.488C689.141,694.882 688.858,695.326 688.655,695.812C685.043,694.304 682.083,691.593 680.262,688.127C680.93,687.864 681.53,687.449 682.016,686.912L682.911,685.923C683.75,684.996 684.177,683.798 684.114,682.55C684.108,682.429 684.094,682.309 684.079,682.19C683.938,681.083 683.406,680.062 682.579,679.313L681.069,677.948C680.208,677.168 679.093,676.739 677.932,676.739C677.682,676.739 677.421,676.763 677.136,676.813C676.299,676.958 675.517,677.328 674.874,677.881C674.71,678.022 674.579,678.149 674.461,678.279L673.567,679.268C673.444,679.403 673.326,679.551 673.215,679.708C672.233,680.574 671.456,682.487 671.913,684.848C672.021,685.41 672.153,685.977 672.318,686.579Z" style="fill:rgb(180,180,180);fill-rule:nonzero;"/>
            <path d="M700.06,687.817C700.06,680.937 694.462,675.34 687.582,675.34C687.208,675.34 686.905,675.036 686.905,674.662C686.905,674.289 687.208,673.985 687.582,673.985C695.209,673.985 701.414,680.19 701.414,687.817C701.414,688.19 701.11,688.494 700.737,688.494C700.364,688.494 700.06,688.19 700.06,687.817ZM701.978,687.817C701.978,679.879 695.52,673.421 687.582,673.421C686.898,673.421 686.341,673.978 686.341,674.662C686.341,675.346 686.898,675.903 687.582,675.903C694.151,675.903 699.496,681.248 699.496,687.817C699.496,688.501 700.053,689.058 700.737,689.058C701.421,689.058 701.978,688.501 701.978,687.817Z" style="fill:rgb(180,180,180);fill-rule:nonzero;"/>
            <path d="M686.75,679.356C686.75,678.983 687.054,678.679 687.428,678.679C692.551,678.679 696.72,682.848 696.72,687.972C696.72,688.345 696.416,688.648 696.042,688.648C695.669,688.648 695.365,688.345 695.365,687.972C695.365,683.595 691.804,680.034 687.428,680.034C687.054,680.034 686.75,679.73 686.75,679.356ZM694.802,687.972C694.802,688.655 695.358,689.212 696.042,689.212C696.726,689.212 697.283,688.655 697.283,687.972C697.283,682.537 692.862,678.116 687.428,678.116C686.744,678.116 686.187,678.672 686.187,679.356C686.187,680.041 686.744,680.598 687.428,680.598C691.494,680.598 694.802,683.905 694.802,687.972Z" style="fill:rgb(180,180,180);fill-rule:nonzero;"/>
        </g>
        <g transform="matrix(1,0,0,1,2072.56,919.748)">
            <path d="M735.878,4285.91L719.556,4253.27L703.235,4285.91L576.569,4285.91L576.569,4298.65L862.544,4298.65L862.544,4285.91L735.878,4285.91Z" style="fill:rgb(27,182,0);"/>
        </g>
    </g>
</svg>
