<?xml version="1.0" encoding="UTF-8" standalone="no"?>
<!DOCTYPE svg PUBLIC "-//W3C//DTD SVG 1.1//EN" "http://www.w3.org/Graphics/SVG/1.1/DTD/svg11.dtd">
<svg width="100%" height="100%" viewBox="0 0 300 737" version="1.1" xmlns="http://www.w3.org/2000/svg" xmlns:xlink="http://www.w3.org/1999/xlink" xml:space="preserve" xmlns:serif="http://www.serif.com/" style="fill-rule:evenodd;clip-rule:evenodd;stroke-linecap:round;stroke-linejoin:round;stroke-miterlimit:1.5;">
    <g transform="matrix(1,0,0,1,-572.564,-4811.79)">
        <g transform="matrix(1.10706,0,0,1,-93.3572,0)">
            <rect x="601.976" y="4812.29" width="270.054" height="735.983" style="fill:none;stroke:white;stroke-width:0.95px;"/>
        </g>
        <g transform="matrix(3.0073,0,0,3.0073,-9654.73,-9019.23)">
            <g transform="matrix(4.16667,0,0,4.16667,0,4363.8)">
                <path d="M832.407,100.466C832.407,101.596 831.966,102.661 831.164,103.462C830.363,104.265 829.299,104.706 828.169,104.706L828.168,104.706C825.831,104.706 823.929,102.806 823.929,100.47C823.929,99.339 824.37,98.275 825.171,97.473C825.973,96.671 827.038,96.23 828.168,96.229C830.504,96.229 832.406,98.13 832.407,100.466ZM824.092,96.395C823.003,97.485 822.403,98.933 822.403,100.47C822.405,103.647 824.99,106.231 828.168,106.231L828.169,106.231C829.708,106.231 831.154,105.631 832.242,104.541C833.333,103.451 833.934,102.003 833.933,100.466C833.931,97.289 831.345,94.704 828.168,94.704C826.629,94.704 825.182,95.305 824.092,96.395Z" style="fill:rgb(27,182,0);fill-rule:nonzero;"/>
            </g>
            <g transform="matrix(4.16667,0,0,4.16667,0,4363.8)">
                <path d="M822.427,113.531C822.66,110.622 823.925,108.788 824.597,108.004C827.349,109.832 830.301,108.965 831.925,107.988C833.476,109.744 833.838,112.287 833.921,113.529L822.427,113.531ZM832.539,106.439C832.266,106.189 831.853,106.171 831.559,106.397C831.525,106.423 828.14,108.966 824.993,106.403C824.705,106.169 824.291,106.175 824.011,106.418C823.886,106.528 820.938,109.147 820.865,114.283C820.863,114.487 820.941,114.684 821.085,114.829C821.229,114.974 821.424,115.056 821.627,115.056L834.707,115.054C835.118,115.054 835.456,114.727 835.469,114.316C835.476,114.11 835.6,109.243 832.539,106.439Z" style="fill:rgb(27,182,0);fill-rule:nonzero;"/>
            </g>
        </g>
        <g transform="matrix(3.0073,0,0,3.0073,-9654.73,-9487.96)">
            <g transform="matrix(4.16667,0,0,4.16667,0,4363.8)">
                <path d="M832.407,100.466C832.407,101.596 831.966,102.661 831.164,103.462C830.363,104.265 829.299,104.706 828.169,104.706L828.168,104.706C825.831,104.706 823.929,102.806 823.929,100.47C823.929,99.339 824.37,98.275 825.171,97.473C825.973,96.671 827.038,96.23 828.168,96.229C830.504,96.229 832.406,98.13 832.407,100.466ZM824.092,96.395C823.003,97.485 822.403,98.933 822.403,100.47C822.405,103.647 824.99,106.231 828.168,106.231L828.169,106.231C829.708,106.231 831.154,105.631 832.242,104.541C833.333,103.451 833.934,102.003 833.933,100.466C833.931,97.289 831.345,94.704 828.168,94.704C826.629,94.704 825.182,95.305 824.092,96.395Z" style="fill:rgb(180,180,180);fill-rule:nonzero;"/>
            </g>
            <g transform="matrix(4.16667,0,0,4.16667,0,4363.8)">
                <path d="M822.427,113.531C822.66,110.622 823.925,108.788 824.597,108.004C827.349,109.832 830.301,108.965 831.925,107.988C833.476,109.744 833.838,112.287 833.921,113.529L822.427,113.531ZM832.539,106.439C832.266,106.189 831.853,106.171 831.559,106.397C831.525,106.423 828.14,108.966 824.993,106.403C824.705,106.169 824.291,106.175 824.011,106.418C823.886,106.528 820.938,109.147 820.865,114.283C820.863,114.487 820.941,114.684 821.085,114.829C821.229,114.974 821.424,115.056 821.627,115.056L834.707,115.054C835.118,115.054 835.456,114.727 835.469,114.316C835.476,114.11 835.6,109.243 832.539,106.439Z" style="fill:rgb(180,180,180);fill-rule:nonzero;"/>
            </g>
        </g>
        <g transform="matrix(1,0,0,1,2.99051,919.748)">
            <path d="M735.878,4285.91L719.556,4253.27L703.235,4285.91L576.569,4285.91L576.569,4298.65L862.544,4298.65L862.544,4285.91L735.878,4285.91Z" style="fill:rgb(27,182,0);"/>
        </g>
    </g>
</svg>
